<svg width="12" height="12" viewBox="0 0 12 12" fill="none" xmlns="http://www.w3.org/2000/svg">
<path d="M10.3749 8.98381L9.10604 10.2425C8.91874 10.4346 8.67047 10.4997 8.42867 10.5C7.35939 10.468 6.34868 9.94272 5.51882 9.40339C4.15665 8.41241 2.90681 7.18365 2.12238 5.69874C1.82153 5.07607 1.46852 4.28158 1.50224 3.58657C1.50525 3.32512 1.57571 3.06852 1.75984 2.89999L3.02873 1.63174C3.29222 1.40761 3.54704 1.4851 3.71565 1.74616L4.73648 3.68193C4.84393 3.91126 4.78229 4.15697 4.62199 4.32084L4.1545 4.78809C4.12564 4.82762 4.10726 4.87262 4.1068 4.9216C4.28606 5.61551 4.82915 6.25509 5.30891 6.69524C5.78866 7.1354 6.30434 7.73173 6.97373 7.8729C7.05647 7.89598 7.15782 7.90408 7.21702 7.84906L7.76084 7.29598C7.94831 7.1539 8.21899 7.08445 8.41913 7.20063H8.42867L10.27 8.2877C10.5403 8.45714 10.5685 8.78459 10.3749 8.98381Z" fill="currentColor"/>
</svg>
